<?xml version="1.0" standalone="no"?>
<!DOCTYPE svg PUBLIC "-//W3C//DTD SVG 20010904//EN"
 "http://www.w3.org/TR/2001/REC-SVG-20010904/DTD/svg10.dtd">
<svg version="1.0" xmlns="http://www.w3.org/2000/svg"
 width="819.000000pt" height="819.000000pt" viewBox="0 0 819.000000 819.000000"
 preserveAspectRatio="xMidYMid meet">

<g transform="translate(0.000000,819.000000) scale(0.100000,-0.100000)"
fill="#000000" stroke="none">
<path d="M5732 6390 c-23 -14 -42 -40 -61 -83 -21 -46 -46 -79 -97 -125 -38
-35 -125 -117 -194 -183 -267 -252 -319 -301 -347 -322 -16 -12 -58 -51 -94
-87 -120 -122 -293 -280 -308 -280 -14 0 -475 154 -571 191 -30 11 -80 30
-110 41 -30 12 -64 27 -75 34 -11 8 -26 14 -35 14 -8 0 -32 9 -53 20 -20 11
-40 20 -43 20 -11 0 -104 -100 -104 -112 0 -7 9 -28 20 -46 11 -18 20 -39 20
-48 0 -10 12 -4 37 20 37 34 37 34 73 19 56 -24 211 -84 260 -100 25 -8 81
-29 125 -45 44 -16 132 -47 195 -69 194 -66 269 -100 272 -123 3 -17 7 -15 38
19 40 44 141 142 280 271 52 48 104 100 115 115 11 15 41 44 65 64 58 48 308
286 466 443 113 112 127 123 152 117 20 -4 38 1 62 17 30 20 37 33 52 98 22
95 22 126 2 134 -34 13 -110 6 -142 -14z"/>
<path d="M5645 5742 c-101 -55 -180 -98 -206 -115 -48 -29 -255 -161 -291
-185 l-38 -25 0 -955 c0 -898 1 -956 18 -968 13 -10 82 -13 310 -14 l292 0 0
1150 c0 633 -3 1150 -7 1150 -5 -1 -39 -18 -78 -38z"/>
<path d="M3730 4316 l0 -825 43 -6 c23 -3 155 -5 292 -3 l250 3 3 828 2 827
-295 0 -295 0 0 -824z"/>
<path d="M4620 5080 c0 -5 5 -10 11 -10 5 0 7 5 4 10 -3 6 -8 10 -11 10 -2 0
-4 -4 -4 -10z"/>
<path d="M4422 4263 l3 -778 293 -2 292 -1 0 779 0 779 -295 0 -295 0 2 -777z"/>
<path d="M3060 3860 l0 -370 53 0 c29 0 133 -2 232 -4 99 -2 206 -1 238 2 l57
5 0 368 0 369 -290 0 -290 0 0 -370z"/>
<path d="M2419 4039 c-1 -8 -2 -134 -3 -281 l-1 -268 168 -1 c202 -2 176 -2
297 0 l100 1 -2 275 -3 276 -277 5 c-230 5 -278 4 -279 -7z"/>
<path d="M2222 2943 l3 -298 35 0 35 0 3 298 2 297 -40 0 -40 0 2 -297z"/>
<path d="M2862 2943 l3 -297 33 -3 32 -3 0 140 c0 105 4 150 16 180 27 67 104
91 157 49 l27 -20 2 -172 3 -172 35 0 35 0 0 170 c0 190 -8 226 -58 252 -63
32 -165 12 -201 -39 -15 -21 -16 -14 -16 95 l0 117 -35 0 -35 0 2 -297z"/>
<path d="M5400 2945 l0 -295 35 0 35 0 0 76 c0 66 3 78 23 95 12 10 25 18 28
19 3 0 37 -43 75 -95 69 -94 69 -95 112 -95 l43 0 -92 121 -91 121 28 31 c16
18 56 60 89 95 l59 62 -44 0 c-44 -1 -47 -3 -135 -102 l-90 -102 -3 182 -2
182 -35 0 -35 0 0 -295z"/>
<path d="M3900 3211 c-85 -28 -120 -68 -120 -141 0 -89 42 -123 208 -166 110
-28 146 -49 150 -89 6 -51 -6 -75 -51 -95 -87 -40 -219 -15 -251 48 -14 26
-19 29 -47 23 -42 -8 -45 -20 -16 -62 51 -77 196 -111 319 -75 112 32 161 143
102 233 -21 32 -80 60 -179 83 -136 32 -176 63 -161 125 11 45 60 67 145 63
71 -3 75 -5 107 -42 29 -33 36 -37 63 -31 17 4 31 11 31 17 0 25 -43 77 -78
94 -41 19 -180 29 -222 15z"/>
<path d="M6360 3211 c-88 -19 -130 -65 -130 -141 0 -90 41 -122 205 -164 119
-30 149 -49 153 -99 2 -20 -1 -45 -7 -55 -17 -31 -73 -52 -140 -52 -75 0 -122
18 -152 59 -23 31 -51 39 -78 22 -12 -8 -11 -15 6 -42 40 -69 142 -107 256
-95 127 13 187 65 187 162 0 88 -49 128 -205 164 -130 30 -155 47 -155 105 0
62 38 85 141 85 71 0 73 -1 110 -40 33 -34 42 -39 68 -34 17 4 31 10 31 14 0
21 -50 77 -82 93 -41 20 -154 30 -208 18z"/>
<path d="M1743 2932 c-62 -153 -113 -281 -113 -286 0 -4 17 -6 38 -4 36 3 38
4 68 83 l32 80 129 3 129 3 33 -85 c32 -85 32 -85 66 -84 19 1 35 6 35 12 0 6
-49 133 -108 281 l-108 270 -45 3 -44 3 -112 -279z m167 187 c0 -6 20 -62 45
-126 25 -63 45 -117 45 -119 0 -2 -45 -4 -100 -4 -55 0 -100 3 -100 8 0 19 96
259 103 255 4 -2 7 -9 7 -14z"/>
<path d="M5920 3180 c0 -30 1 -30 55 -30 l55 0 0 -172 c0 -187 -9 -239 -43
-263 -51 -36 -127 -4 -143 59 -5 22 -10 24 -37 19 -42 -8 -41 -6 -27 -47 35
-107 202 -141 274 -56 40 48 46 90 46 313 l0 207 -90 0 -90 0 0 -30z"/>
<path d="M4340 3158 c-5 -13 -11 -35 -14 -50 -5 -22 -12 -28 -31 -28 -20 0
-25 -5 -25 -25 0 -20 5 -25 25 -25 l25 0 0 -170 c0 -168 0 -171 25 -195 39
-40 135 -32 135 11 0 21 -5 24 -39 24 -26 0 -41 5 -45 16 -3 9 -6 83 -6 165
l0 149 40 0 c36 0 40 3 40 25 0 23 -4 25 -40 25 l-40 0 0 44 c0 31 -5 46 -16
50 -23 9 -24 8 -34 -16z"/>
<path d="M2534 3071 c-18 -10 -35 -24 -39 -30 -9 -16 -25 -3 -25 20 0 15 -7
19 -35 19 l-35 0 0 -300 0 -300 40 0 40 0 0 111 0 111 31 -26 c38 -32 68 -40
121 -33 52 7 86 32 112 83 17 32 21 57 21 139 0 153 -40 214 -147 222 -40 3
-60 -1 -84 -16z m127 -67 c22 -24 24 -33 24 -139 0 -106 -2 -115 -24 -139 -50
-53 -139 -38 -166 28 -20 46 -19 166 0 214 21 49 40 62 95 62 37 0 51 -5 71
-26z"/>
<path d="M3405 3080 c-35 -11 -80 -54 -90 -87 -6 -21 -3 -23 34 -23 28 0 41 4
41 13 0 33 45 51 118 48 36 -2 62 -36 62 -81 l0 -40 -66 0 c-130 0 -195 -35
-210 -116 -10 -53 19 -118 60 -138 65 -31 147 -15 195 37 l24 26 16 -32 c18
-36 55 -53 95 -43 31 8 37 46 7 46 -10 0 -23 6 -29 13 -5 6 -12 75 -14 152 -3
152 -11 177 -63 211 -29 19 -137 28 -180 14z m165 -255 c0 -97 -107 -169 -178
-119 -22 15 -30 71 -16 109 11 27 63 44 132 45 l62 0 0 -35z"/>
<path d="M4636 3080 c-75 -24 -115 -99 -116 -213 0 -86 16 -136 57 -180 47
-48 146 -61 219 -28 79 36 109 105 102 231 -6 89 -31 146 -78 174 -37 21 -140
30 -184 16z m151 -72 c44 -41 53 -189 16 -261 -18 -35 -75 -61 -118 -53 -40 8
-70 40 -84 91 -30 111 5 230 74 248 34 9 89 -4 112 -25z"/>
<path d="M5105 3081 c-17 -4 -43 -16 -58 -26 -88 -58 -103 -272 -25 -361 83
-95 264 -58 294 60 6 24 4 26 -29 26 -27 0 -37 -5 -42 -20 -12 -37 -46 -60
-90 -60 -78 0 -109 51 -108 176 1 110 34 154 114 154 29 0 61 -25 84 -63 8
-14 18 -16 42 -11 29 6 31 8 22 33 -27 71 -120 113 -204 92z"/>
</g>
</svg>
